<svg xmlns="http://www.w3.org/2000/svg" viewBox="0 0 960 540">
  <rect width="960" height="540" fill="#1a1a2e"/>
  <text x="480" y="40" text-anchor="middle" fill="#e94560" font-family="monospace" font-size="24" font-weight="bold">DAGScheduler → TaskScheduler</text>
  <rect x="340" y="70" width="280" height="45" rx="8" fill="#533483" stroke="#e94560" stroke-width="2"/>
  <text x="480" y="100" text-anchor="middle" fill="#fff" font-family="monospace" font-size="16">User Code (Action)</text>
  <line x1="480" y1="115" x2="480" y2="145" stroke="#e94560" stroke-width="2"/>
  <rect x="300" y="145" width="360" height="50" rx="8" fill="#0f3460" stroke="#4ecca3" stroke-width="2"/>
  <text x="480" y="177" text-anchor="middle" fill="#4ecca3" font-family="monospace" font-size="16">DAGScheduler</text>
  <text x="480" y="205" text-anchor="middle" fill="#aaa" font-family="monospace" font-size="12">RDD Graph → Stages (by ShuffleDep)</text>
  <line x1="350" y1="195" x2="200" y2="260" stroke="#4ecca3" stroke-width="1.5"/>
  <line x1="480" y1="195" x2="480" y2="260" stroke="#4ecca3" stroke-width="1.5"/>
  <line x1="610" y1="195" x2="760" y2="260" stroke="#4ecca3" stroke-width="1.5"/>
  <rect x="120" y="260" width="160" height="40" rx="6" fill="#16213e" stroke="#4ecca3" stroke-width="1.5"/>
  <text x="200" y="285" text-anchor="middle" fill="#fff" font-family="monospace" font-size="13">Stage 0</text>
  <rect x="400" y="260" width="160" height="40" rx="6" fill="#16213e" stroke="#4ecca3" stroke-width="1.5"/>
  <text x="480" y="285" text-anchor="middle" fill="#fff" font-family="monospace" font-size="13">Stage 1</text>
  <rect x="680" y="260" width="160" height="40" rx="6" fill="#16213e" stroke="#4ecca3" stroke-width="1.5"/>
  <text x="760" y="285" text-anchor="middle" fill="#fff" font-family="monospace" font-size="13">Stage 2</text>
  <line x1="480" y1="320" x2="480" y2="350" stroke="#e94560" stroke-width="2"/>
  <rect x="300" y="350" width="360" height="50" rx="8" fill="#0f3460" stroke="#e94560" stroke-width="2"/>
  <text x="480" y="382" text-anchor="middle" fill="#e94560" font-family="monospace" font-size="16">TaskScheduler</text>
  <text x="480" y="410" text-anchor="middle" fill="#aaa" font-family="monospace" font-size="12">Stages → Tasks (by Partition)</text>
  <line x1="350" y1="400" x2="120" y2="450" stroke="#e94560" stroke-width="1"/>
  <line x1="420" y1="400" x2="280" y2="450" stroke="#e94560" stroke-width="1"/>
  <line x1="480" y1="400" x2="440" y2="450" stroke="#e94560" stroke-width="1"/>
  <line x1="540" y1="400" x2="600" y2="450" stroke="#e94560" stroke-width="1"/>
  <line x1="610" y1="400" x2="760" y2="450" stroke="#e94560" stroke-width="1"/>
  <rect x="80" y="450" width="80" height="30" rx="4" fill="#16213e" stroke="#e94560" stroke-width="1"/>
  <text x="120" y="470" text-anchor="middle" fill="#fff" font-family="monospace" font-size="10">Task 0</text>
  <rect x="240" y="450" width="80" height="30" rx="4" fill="#16213e" stroke="#e94560" stroke-width="1"/>
  <text x="280" y="470" text-anchor="middle" fill="#fff" font-family="monospace" font-size="10">Task 1</text>
  <rect x="400" y="450" width="80" height="30" rx="4" fill="#16213e" stroke="#e94560" stroke-width="1"/>
  <text x="440" y="470" text-anchor="middle" fill="#fff" font-family="monospace" font-size="10">Task 2</text>
  <rect x="560" y="450" width="80" height="30" rx="4" fill="#16213e" stroke="#e94560" stroke-width="1"/>
  <text x="600" y="470" text-anchor="middle" fill="#fff" font-family="monospace" font-size="10">Task 3</text>
  <rect x="720" y="450" width="80" height="30" rx="4" fill="#16213e" stroke="#e94560" stroke-width="1"/>
  <text x="760" y="470" text-anchor="middle" fill="#fff" font-family="monospace" font-size="10">Task 4</text>
  <text x="480" y="520" text-anchor="middle" fill="#666" font-family="monospace" font-size="12">Job → Stages → Tasks → Executors</text>
</svg>
