<svg xmlns="http://www.w3.org/2000/svg" width="1200" height="630" viewBox="0 0 1200 630" role="img" aria-labelledby="title desc"><title id="title">Replica HA cover</title><desc id="desc">Primary-replica write path and failover.</desc><defs><linearGradient id="bg" x1="0" y1="0" x2="1" y2="1"><stop offset="0" stop-color="#101820"/><stop offset="0.48" stop-color="#18332f"/><stop offset="1" stop-color="#2b253b"/></linearGradient><linearGradient id="hot" x1="0" y1="0" x2="1" y2="0"><stop offset="0" stop-color="#f97316"/><stop offset="1" stop-color="#facc15"/></linearGradient><linearGradient id="cool" x1="0" y1="0" x2="1" y2="0"><stop offset="0" stop-color="#2dd4bf"/><stop offset="1" stop-color="#38bdf8"/></linearGradient><filter id="shadow" x="-20%" y="-20%" width="140%" height="140%"><feDropShadow dx="0" dy="18" stdDeviation="18" flood-color="#020617" flood-opacity="0.32"/></filter></defs><rect width="1200" height="630" fill="url(#bg)"/><rect x="72" y="74" width="1056" height="482" rx="28" fill="#f8fafc" opacity="0.06"/><rect x="72" y="74" width="1056" height="482" rx="28" fill="none" stroke="#dbeafe" opacity="0.16"/><g transform="translate(130 145)" filter="url(#shadow)"><text x="0" y="0" fill="#f8fafc" font-family="Inter, PingFang SC, sans-serif" font-size="54" font-weight="700">Replica &amp; HA</text><text x="2" y="48" fill="#cbd5e1" font-family="Inter, PingFang SC, sans-serif" font-size="24">primary-replica sync · failover · adaptive replica selection</text></g><g transform="translate(130 280)"><rect x="200" y="-10" width="140" height="56" rx="12" fill="#f8fafc" opacity="0.12"/><text x="230" y="24" fill="#f8fafc" font-family="Inter, PingFang SC, sans-serif" font-size="17" font-weight="600">Client</text><path d="M270 46 V85" stroke="#f97316" stroke-width="3"/><rect x="200" y="90" width="140" height="56" rx="12" fill="url(#hot)"/><text x="222" y="124" fill="#0f172a" font-family="Inter, PingFang SC, sans-serif" font-size="16" font-weight="700">Primary P0</text><path d="M200 118 C130 118 80 190 80 190" fill="none" stroke="url(#cool)" stroke-width="3"/><path d="M340 118 C410 118 460 190 460 190" fill="none" stroke="url(#cool)" stroke-width="3"/><rect x="10" y="190" width="140" height="48" rx="10" fill="#ccfbf1" opacity="0.9"/><text x="34" y="220" fill="#0f172a" font-family="Inter, PingFang SC, sans-serif" font-size="15" font-weight="600">Replica R0</text><rect x="390" y="190" width="140" height="48" rx="10" fill="#ccfbf1" opacity="0.9"/><text x="414" y="220" fill="#0f172a" font-family="Inter, PingFang SC, sans-serif" font-size="15" font-weight="600">Replica R0'</text><path d="M80 238 C80 270 270 270 270 270" fill="none" stroke="#94a3b8" stroke-width="2" stroke-dasharray="5 4"/><path d="M460 238 C460 270 270 270 270 270" fill="none" stroke="#94a3b8" stroke-width="2" stroke-dasharray="5 4"/><text x="220" y="296" fill="#94a3b8" font-family="Inter, PingFang SC, sans-serif" font-size="14">ack to client</text></g><g transform="translate(600 280)"><text x="0" y="0" fill="#f8fafc" font-family="Inter, PingFang SC, sans-serif" font-size="20" font-weight="600">FAILOVER</text><rect x="0" y="20" width="130" height="48" rx="10" fill="url(#hot)" opacity="0.4"/><text x="14" y="50" fill="#f8fafc" font-family="Inter, PingFang SC, sans-serif" font-size="14">Primary ✗</text><path d="M145 44 H200" stroke="#f97316" stroke-width="3"/><rect x="215" y="20" width="150" height="48" rx="10" fill="url(#hot)"/><text x="230" y="50" fill="#0f172a" font-family="Inter, PingFang SC, sans-serif" font-size="14" font-weight="700">Replica → Primary</text></g><g transform="translate(130 500)"><text x="0" y="0" fill="#cbd5e1" font-family="Inter, PingFang SC, sans-serif" font-size="19">write: client → primary → replicas → ack | failover: replica promoted</text></g></svg>
