<svg xmlns="http://www.w3.org/2000/svg" width="1200" height="630" viewBox="0 0 1200 630" role="img" aria-labelledby="title desc"><title id="title">Cluster Coordination cover</title><desc id="desc">Master election and cluster state broadcast.</desc><defs><linearGradient id="bg" x1="0" y1="0" x2="1" y2="1"><stop offset="0" stop-color="#101820"/><stop offset="0.48" stop-color="#18332f"/><stop offset="1" stop-color="#2b253b"/></linearGradient><linearGradient id="hot" x1="0" y1="0" x2="1" y2="0"><stop offset="0" stop-color="#f97316"/><stop offset="1" stop-color="#facc15"/></linearGradient><filter id="shadow" x="-20%" y="-20%" width="140%" height="140%"><feDropShadow dx="0" dy="18" stdDeviation="18" flood-color="#020617" flood-opacity="0.32"/></filter></defs><rect width="1200" height="630" fill="url(#bg)"/><rect x="72" y="74" width="1056" height="482" rx="28" fill="#f8fafc" opacity="0.06"/><rect x="72" y="74" width="1056" height="482" rx="28" fill="none" stroke="#dbeafe" opacity="0.16"/><g transform="translate(130 145)" filter="url(#shadow)"><text x="0" y="0" fill="#f8fafc" font-family="Inter, PingFang SC, sans-serif" font-size="54" font-weight="700">Cluster Coordination</text><text x="2" y="48" fill="#cbd5e1" font-family="Inter, PingFang SC, sans-serif" font-size="24">master election · cluster state · split-brain prevention</text></g><g transform="translate(300 290)"><rect x="0" y="0" width="160" height="70" rx="14" fill="url(#hot)"/><text x="24" y="30" fill="#0f172a" font-family="Inter, PingFang SC, sans-serif" font-size="18" font-weight="700">Master</text><text x="24" y="52" fill="#0f172a" font-family="Inter, PingFang SC, sans-serif" font-size="13">elected leader</text><path d="M80 70 V110 H-120 V140" stroke="#f97316" stroke-width="3" stroke-linecap="round"/><path d="M80 70 V110 H80 V140" stroke="#f97316" stroke-width="3" stroke-linecap="round"/><path d="M80 70 V110 H280 V140" stroke="#f97316" stroke-width="3" stroke-linecap="round"/><rect x="-190" y="140" width="140" height="50" rx="10" fill="#dbeafe" opacity="0.9"/><text x="-170" y="172" fill="#0f172a" font-family="Inter, PingFang SC, sans-serif" font-size="14" font-weight="600">Node 1</text><rect x="10" y="140" width="140" height="50" rx="10" fill="#ccfbf1" opacity="0.9"/><text x="34" y="172" fill="#0f172a" font-family="Inter, PingFang SC, sans-serif" font-size="14" font-weight="600">Node 2</text><rect x="210" y="140" width="140" height="50" rx="10" fill="#fef3c7" opacity="0.9"/><text x="234" y="172" fill="#0f172a" font-family="Inter, PingFang SC, sans-serif" font-size="14" font-weight="600">Node 3</text><text x="-60" y="220" fill="#94a3b8" font-family="Inter, PingFang SC, sans-serif" font-size="15">← full cluster state broadcast →</text></g><g transform="translate(130 510)"><text x="0" y="0" fill="#cbd5e1" font-family="Inter, PingFang SC, sans-serif" font-size="19">single master writes cluster state; all nodes apply locally</text></g></svg>
