<svg xmlns="http://www.w3.org/2000/svg" viewBox="0 0 960 540">
  <rect width="960" height="540" fill="#1a1a2e"/>
  <text x="480" y="40" text-anchor="middle" fill="#e94560" font-family="monospace" font-size="24" font-weight="bold">Fault Tolerance — Lineage &amp; Checkpoint</text>
  <text x="100" y="90" fill="#4ecca3" font-family="monospace" font-size="14">Lineage (dependency chain):</text>
  <rect x="60" y="110" width="100" height="40" rx="5" fill="#0f3460" stroke="#4ecca3" stroke-width="1.5"/>
  <text x="110" y="135" text-anchor="middle" fill="#fff" font-family="monospace" font-size="11">HDFS</text>
  <rect x="200" y="110" width="100" height="40" rx="5" fill="#0f3460" stroke="#4ecca3" stroke-width="1.5"/>
  <text x="250" y="135" text-anchor="middle" fill="#fff" font-family="monospace" font-size="11">map</text>
  <rect x="340" y="110" width="100" height="40" rx="5" fill="#0f3460" stroke="#4ecca3" stroke-width="1.5"/>
  <text x="390" y="135" text-anchor="middle" fill="#fff" font-family="monospace" font-size="11">filter</text>
  <rect x="480" y="110" width="100" height="40" rx="5" fill="#533483" stroke="#e94560" stroke-width="1.5"/>
  <text x="530" y="135" text-anchor="middle" fill="#fff" font-family="monospace" font-size="11">groupBy</text>
  <rect x="620" y="110" width="100" height="40" rx="5" fill="#0f3460" stroke="#4ecca3" stroke-width="1.5"/>
  <text x="670" y="135" text-anchor="middle" fill="#fff" font-family="monospace" font-size="11">map</text>
  <rect x="760" y="110" width="100" height="40" rx="5" fill="#e94560" stroke="#e94560" stroke-width="2"/>
  <text x="810" y="135" text-anchor="middle" fill="#fff" font-family="monospace" font-size="11">LOST!</text>
  <line x1="160" y1="130" x2="200" y2="130" stroke="#4ecca3" stroke-width="1.5"/>
  <line x1="300" y1="130" x2="340" y2="130" stroke="#4ecca3" stroke-width="1.5"/>
  <line x1="440" y1="130" x2="480" y2="130" stroke="#e94560" stroke-width="1.5"/>
  <line x1="580" y1="130" x2="620" y2="130" stroke="#4ecca3" stroke-width="1.5"/>
  <line x1="720" y1="130" x2="760" y2="130" stroke="#4ecca3" stroke-width="1.5"/>
  <line x1="810" y1="150" x2="670" y2="200" stroke="#e94560" stroke-width="2" stroke-dasharray="6,3"/>
  <text x="760" y="195" fill="#e94560" font-family="monospace" font-size="11">Recompute from lineage</text>
  <text x="100" y="270" fill="#e94560" font-family="monospace" font-size="14">Checkpoint (truncate lineage):</text>
  <rect x="60" y="290" width="100" height="40" rx="5" fill="#0f3460" stroke="#4ecca3" stroke-width="1.5"/>
  <text x="110" y="315" text-anchor="middle" fill="#fff" font-family="monospace" font-size="11">HDFS</text>
  <rect x="200" y="290" width="100" height="40" rx="5" fill="#0f3460" stroke="#4ecca3" stroke-width="1.5"/>
  <text x="250" y="315" text-anchor="middle" fill="#fff" font-family="monospace" font-size="11">map</text>
  <rect x="340" y="290" width="100" height="40" rx="5" fill="#0f3460" stroke="#4ecca3" stroke-width="1.5"/>
  <text x="390" y="315" text-anchor="middle" fill="#fff" font-family="monospace" font-size="11">filter</text>
  <rect x="480" y="290" width="120" height="40" rx="5" fill="#4ecca3" stroke="#4ecca3" stroke-width="2"/>
  <text x="540" y="315" text-anchor="middle" fill="#1a1a2e" font-family="monospace" font-size="11" font-weight="bold">CHECKPOINT</text>
  <line x1="160" y1="310" x2="200" y2="310" stroke="#4ecca3" stroke-width="1.5"/>
  <line x1="300" y1="310" x2="340" y2="310" stroke="#4ecca3" stroke-width="1.5"/>
  <line x1="440" y1="310" x2="480" y2="310" stroke="#4ecca3" stroke-width="1.5"/>
  <rect x="640" y="290" width="100" height="40" rx="5" fill="#0f3460" stroke="#4ecca3" stroke-width="1.5"/>
  <text x="690" y="315" text-anchor="middle" fill="#fff" font-family="monospace" font-size="11">groupBy</text>
  <rect x="780" y="290" width="100" height="40" rx="5" fill="#0f3460" stroke="#4ecca3" stroke-width="1.5"/>
  <text x="830" y="315" text-anchor="middle" fill="#fff" font-family="monospace" font-size="11">map</text>
  <line x1="600" y1="310" x2="640" y2="310" stroke="#4ecca3" stroke-width="1.5"/>
  <line x1="740" y1="310" x2="780" y2="310" stroke="#4ecca3" stroke-width="1.5"/>
  <text x="540" y="370" fill="#4ecca3" font-family="monospace" font-size="11">Recovery starts here (short lineage)</text>
  <text x="100" y="430" fill="#aaa" font-family="monospace" font-size="14">Speculative Execution:</text>
  <rect x="60" y="450" width="120" height="35" rx="5" fill="#0f3460" stroke="#4ecca3" stroke-width="1"/>
  <text x="120" y="472" text-anchor="middle" fill="#fff" font-family="monospace" font-size="10">Task (slow)</text>
  <rect x="240" y="450" width="120" height="35" rx="5" fill="#0f3460" stroke="#e94560" stroke-width="1.5"/>
  <text x="300" y="472" text-anchor="middle" fill="#e94560" font-family="monospace" font-size="10">Task (backup)</text>
  <text x="420" y="472" fill="#aaa" font-family="monospace" font-size="10">→ first to finish wins</text>
</svg>
