<?xml version="1.0" encoding="UTF-8"?>
<svg xmlns="http://www.w3.org/2000/svg" width="1600" height="900" viewBox="0 0 1600 900" role="img" aria-labelledby="title desc">
  <title id="title">小步语义：把程序执行拆成一步一步的规约</title>
  <desc id="desc">把一次执行拆成可观察、可暂停、可追踪的机器配置</desc>
  <defs>
    <linearGradient id="bg" x1="0" y1="0" x2="1" y2="1">
      <stop offset="0" stop-color="#fbfbf7"/>
      <stop offset="0.58" stop-color="#f8fafc"/>
      <stop offset="1" stop-color="#eef6f3"/>
    </linearGradient>
    <pattern id="grid" width="42" height="42" patternUnits="userSpaceOnUse">
      <path d="M 42 0 L 0 0 0 42" fill="none" stroke="#dbe4e6" stroke-width="1" opacity="0.55"/>
      <circle cx="0" cy="0" r="1.6" fill="#94a3b8" opacity="0.45"/>
    </pattern>
    <filter id="shadow" x="-20%" y="-20%" width="140%" height="140%">
      <feDropShadow dx="0" dy="18" stdDeviation="18" flood-color="#0f172a" flood-opacity="0.12"/>
    </filter>
    <marker id="arrow" markerWidth="12" markerHeight="12" refX="10" refY="6" orient="auto" markerUnits="strokeWidth">
      <path d="M 0 0 L 12 6 L 0 12 z" fill="#ea580c"/>
    </marker>
    <style>
      text { font-family: "PingFang SC", "Noto Sans SC", "Source Han Sans SC", "Microsoft YaHei", Arial, sans-serif; }
      .mono { font-family: "SFMono-Regular", "Cascadia Code", "JetBrains Mono", Consolas, monospace; }
    </style>
  </defs>
  <rect width="1600" height="900" fill="url(#bg)"/>
  <rect width="1600" height="900" fill="url(#grid)" opacity="0.62"/>
  <circle cx="1430" cy="88" r="190" fill="#ea580c" opacity="0.09"/>
  <circle cx="116" cy="742" r="240" fill="#2563eb" opacity="0.08"/>
  <path d="M 88 126 C 310 38, 498 102, 690 54" stroke="#65a30d" stroke-width="8" stroke-linecap="round" opacity="0.34" fill="none"/>
  <text x="104" y="134" font-size="25" fill="#ea580c" font-weight="800">COMPUTATION REREAD / 04</text>
  <rect x="104" y="164" width="286" height="46" rx="23" fill="#ffffff" opacity="0.86" stroke="#ea580c" stroke-width="2"/>
  <text x="247" y="195" font-size="25" fill="#111827" font-weight="800" text-anchor="middle" class="">小步规约</text>
  <text x="104" y="304" font-size="52" fill="#111827" font-weight="850"><tspan x="104" dy="0">小步语义：把程序执行拆成一步</tspan><tspan x="104" dy="64">一步的规约</tspan></text>
  <text x="108" y="458" font-size="29" fill="#475569" font-weight="650"><tspan x="108" dy="0">把一次执行拆成可观察、可暂停、可追踪</tspan><tspan x="108" dy="42">的机器配置</tspan></text>
  <g opacity="0.96"><rect x="830" y="155" width="660" height="560" rx="34" fill="#ffffff" opacity="0.88" stroke="#d1d5db" stroke-width="2" filter="url(#shadow)"/><g><rect x="870" y="322" width="90" height="54" rx="27" fill="#fff" stroke="#ea580c" stroke-width="2"/><text x="915" y="357" font-size="23" fill="#111827" font-weight="700" text-anchor="middle" class="">c0</text></g><g><rect x="990" y="402" width="90" height="54" rx="27" fill="#fff" stroke="#ea580c" stroke-width="2"/><text x="1035" y="437" font-size="23" fill="#111827" font-weight="700" text-anchor="middle" class="">c1</text></g><g><rect x="1110" y="322" width="90" height="54" rx="27" fill="#fff" stroke="#ea580c" stroke-width="2"/><text x="1155" y="357" font-size="23" fill="#111827" font-weight="700" text-anchor="middle" class="">c2</text></g><g><rect x="1230" y="402" width="90" height="54" rx="27" fill="#fff" stroke="#ea580c" stroke-width="2"/><text x="1275" y="437" font-size="23" fill="#111827" font-weight="700" text-anchor="middle" class="">c3</text></g><g><rect x="1350" y="322" width="90" height="54" rx="27" fill="#dcfce7" stroke="#2563eb" stroke-width="2"/><text x="1395" y="357" font-size="23" fill="#111827" font-weight="700" text-anchor="middle" class="">done</text></g><path d="M 960 349 L 990 429" fill="none" stroke="#ea580c" stroke-width="3" stroke-linecap="round" marker-end="url(#arrow)"/><path d="M 1080 429 L 1110 349" fill="none" stroke="#ea580c" stroke-width="3" stroke-linecap="round" marker-end="url(#arrow)"/><path d="M 1200 349 L 1230 429" fill="none" stroke="#ea580c" stroke-width="3" stroke-linecap="round" marker-end="url(#arrow)"/><path d="M 1320 429 L 1350 349" fill="none" stroke="#ea580c" stroke-width="3" stroke-linecap="round" marker-end="url(#arrow)"/><g><rect x="980" y="545" width="385" height="78" rx="16" fill="#f8fafc" stroke="#65a30d" stroke-width="2" filter="url(#shadow)"/><text x="1172.5" y="593" font-size="26" fill="#111827" font-weight="700" text-anchor="middle" class="">配置 = 语句 + 环境</text></g></g>
  <g><circle cx="104" cy="812" r="4" fill="#ea580c" opacity="0.75"/><circle cx="132" cy="812" r="4" fill="#ea580c" opacity="0.75"/><circle cx="160" cy="812" r="4" fill="#ea580c" opacity="0.75"/><circle cx="188" cy="812" r="4" fill="#ea580c" opacity="0.75"/><circle cx="216" cy="812" r="7" fill="#ea580c" opacity="1"/><circle cx="244" cy="812" r="4" fill="#cbd5e1" opacity="0.75"/><circle cx="272" cy="812" r="4" fill="#cbd5e1" opacity="0.75"/><circle cx="300" cy="812" r="4" fill="#cbd5e1" opacity="0.75"/><circle cx="328" cy="812" r="4" fill="#cbd5e1" opacity="0.75"/><circle cx="356" cy="812" r="4" fill="#cbd5e1" opacity="0.75"/><circle cx="384" cy="812" r="4" fill="#cbd5e1" opacity="0.75"/><circle cx="412" cy="812" r="4" fill="#cbd5e1" opacity="0.75"/><circle cx="440" cy="812" r="4" fill="#cbd5e1" opacity="0.75"/><circle cx="468" cy="812" r="4" fill="#cbd5e1" opacity="0.75"/><circle cx="496" cy="812" r="4" fill="#cbd5e1" opacity="0.75"/><circle cx="524" cy="812" r="4" fill="#cbd5e1" opacity="0.75"/><circle cx="552" cy="812" r="4" fill="#cbd5e1" opacity="0.75"/><circle cx="580" cy="812" r="4" fill="#cbd5e1" opacity="0.75"/><circle cx="608" cy="812" r="4" fill="#cbd5e1" opacity="0.75"/><rect x="104" y="834" width="532" height="6" rx="3" fill="#e5e7eb"/><rect x="104" y="834" width="140.0" height="6" rx="3" fill="#65a30d"/></g>
  <text x="104" y="780" font-size="23" fill="#64748b" font-weight="700" text-anchor="start" class="">Tom Stuart / Understanding Computation</text>
  <text x="1480" y="808" font-size="24" fill="#64748b" font-weight="700" text-anchor="end" class="">finite rules, visible states</text>
</svg>
