<?xml version="1.0" encoding="UTF-8"?>
<svg xmlns="http://www.w3.org/2000/svg" width="1600" height="900" viewBox="0 0 1600 900" role="img" aria-labelledby="title desc">
  <title id="title">图灵机：纸带、读写头和最小通用计算</title>
  <desc id="desc">控制状态、读写头和无限纸带构成最小通用模型</desc>
  <defs>
    <linearGradient id="bg" x1="0" y1="0" x2="1" y2="1">
      <stop offset="0" stop-color="#fbfbf7"/>
      <stop offset="0.58" stop-color="#f8fafc"/>
      <stop offset="1" stop-color="#eef6f3"/>
    </linearGradient>
    <pattern id="grid" width="42" height="42" patternUnits="userSpaceOnUse">
      <path d="M 42 0 L 0 0 0 42" fill="none" stroke="#dbe4e6" stroke-width="1" opacity="0.55"/>
      <circle cx="0" cy="0" r="1.6" fill="#94a3b8" opacity="0.45"/>
    </pattern>
    <filter id="shadow" x="-20%" y="-20%" width="140%" height="140%">
      <feDropShadow dx="0" dy="18" stdDeviation="18" flood-color="#0f172a" flood-opacity="0.12"/>
    </filter>
    <marker id="arrow" markerWidth="12" markerHeight="12" refX="10" refY="6" orient="auto" markerUnits="strokeWidth">
      <path d="M 0 0 L 12 6 L 0 12 z" fill="#2563eb"/>
    </marker>
    <style>
      text { font-family: "PingFang SC", "Noto Sans SC", "Source Han Sans SC", "Microsoft YaHei", Arial, sans-serif; }
      .mono { font-family: "SFMono-Regular", "Cascadia Code", "JetBrains Mono", Consolas, monospace; }
    </style>
  </defs>
  <rect width="1600" height="900" fill="url(#bg)"/>
  <rect width="1600" height="900" fill="url(#grid)" opacity="0.62"/>
  <circle cx="1430" cy="88" r="190" fill="#2563eb" opacity="0.09"/>
  <circle cx="116" cy="742" r="240" fill="#dc2626" opacity="0.08"/>
  <path d="M 88 126 C 310 38, 498 102, 690 54" stroke="#84cc16" stroke-width="8" stroke-linecap="round" opacity="0.34" fill="none"/>
  <text x="104" y="134" font-size="25" fill="#2563eb" font-weight="800">COMPUTATION REREAD / 10</text>
  <rect x="104" y="164" width="286" height="46" rx="23" fill="#ffffff" opacity="0.86" stroke="#2563eb" stroke-width="2"/>
  <text x="247" y="195" font-size="25" fill="#111827" font-weight="800" text-anchor="middle" class="">Turing Machine</text>
  <text x="104" y="304" font-size="52" fill="#111827" font-weight="850"><tspan x="104" dy="0">图灵机：纸带、读写头和最小通</tspan><tspan x="104" dy="64">用计算</tspan></text>
  <text x="108" y="458" font-size="29" fill="#475569" font-weight="650"><tspan x="108" dy="0">控制状态、读写头和无限纸带构成最小通</tspan><tspan x="108" dy="42">用模型</tspan></text>
  <g opacity="0.96"><rect x="830" y="155" width="660" height="560" rx="34" fill="#ffffff" opacity="0.88" stroke="#d1d5db" stroke-width="2" filter="url(#shadow)"/><g><rect x="885" y="360" width="70" height="70" fill="#fff" stroke="#cbd5e1" stroke-width="3"/><text x="920" y="405" font-size="30" fill="#111827" font-weight="800" text-anchor="middle" class="">1</text><rect x="955" y="360" width="70" height="70" fill="#fff" stroke="#cbd5e1" stroke-width="3"/><text x="990" y="405" font-size="30" fill="#111827" font-weight="800" text-anchor="middle" class="">0</text><rect x="1025" y="360" width="70" height="70" fill="#fff" stroke="#cbd5e1" stroke-width="3"/><text x="1060" y="405" font-size="30" fill="#111827" font-weight="800" text-anchor="middle" class="">1</text><rect x="1095" y="360" width="70" height="70" fill="#fef3c7" stroke="#84cc16" stroke-width="3"/><text x="1130" y="405" font-size="30" fill="#111827" font-weight="800" text-anchor="middle" class="">_</text><rect x="1165" y="360" width="70" height="70" fill="#fff" stroke="#cbd5e1" stroke-width="3"/><text x="1200" y="405" font-size="30" fill="#111827" font-weight="800" text-anchor="middle" class=""> </text><rect x="1235" y="360" width="70" height="70" fill="#fff" stroke="#cbd5e1" stroke-width="3"/><text x="1270" y="405" font-size="30" fill="#111827" font-weight="800" text-anchor="middle" class=""> </text><rect x="1305" y="360" width="70" height="70" fill="#fff" stroke="#cbd5e1" stroke-width="3"/><text x="1340" y="405" font-size="30" fill="#111827" font-weight="800" text-anchor="middle" class=""> </text><rect x="1375" y="360" width="70" height="70" fill="#fff" stroke="#cbd5e1" stroke-width="3"/><text x="1410" y="405" font-size="30" fill="#111827" font-weight="800" text-anchor="middle" class=""> </text></g><path d="M 1130 455 L 1160 520 L 1190 455 Z" fill="#2563eb" opacity="0.9"/><g><rect x="1035" y="565" width="250" height="70" rx="16" fill="#ecfeff" stroke="#2563eb" stroke-width="2" filter="url(#shadow)"/><text x="1160" y="609" font-size="25" fill="#111827" font-weight="700" text-anchor="middle" class="">state: scan</text></g><text x="1195" y="302" font-size="30" fill="#334155" font-weight="700" text-anchor="middle" class="">读 / 写 / 移动</text></g>
  <g><circle cx="104" cy="812" r="4" fill="#2563eb" opacity="0.75"/><circle cx="132" cy="812" r="4" fill="#2563eb" opacity="0.75"/><circle cx="160" cy="812" r="4" fill="#2563eb" opacity="0.75"/><circle cx="188" cy="812" r="4" fill="#2563eb" opacity="0.75"/><circle cx="216" cy="812" r="4" fill="#2563eb" opacity="0.75"/><circle cx="244" cy="812" r="4" fill="#2563eb" opacity="0.75"/><circle cx="272" cy="812" r="4" fill="#2563eb" opacity="0.75"/><circle cx="300" cy="812" r="4" fill="#2563eb" opacity="0.75"/><circle cx="328" cy="812" r="4" fill="#2563eb" opacity="0.75"/><circle cx="356" cy="812" r="4" fill="#2563eb" opacity="0.75"/><circle cx="384" cy="812" r="7" fill="#2563eb" opacity="1"/><circle cx="412" cy="812" r="4" fill="#cbd5e1" opacity="0.75"/><circle cx="440" cy="812" r="4" fill="#cbd5e1" opacity="0.75"/><circle cx="468" cy="812" r="4" fill="#cbd5e1" opacity="0.75"/><circle cx="496" cy="812" r="4" fill="#cbd5e1" opacity="0.75"/><circle cx="524" cy="812" r="4" fill="#cbd5e1" opacity="0.75"/><circle cx="552" cy="812" r="4" fill="#cbd5e1" opacity="0.75"/><circle cx="580" cy="812" r="4" fill="#cbd5e1" opacity="0.75"/><circle cx="608" cy="812" r="4" fill="#cbd5e1" opacity="0.75"/><rect x="104" y="834" width="532" height="6" rx="3" fill="#e5e7eb"/><rect x="104" y="834" width="308.0" height="6" rx="3" fill="#84cc16"/></g>
  <text x="104" y="780" font-size="23" fill="#64748b" font-weight="700" text-anchor="start" class="">Tom Stuart / Understanding Computation</text>
  <text x="1480" y="808" font-size="24" fill="#64748b" font-weight="700" text-anchor="end" class="">finite rules, visible states</text>
</svg>
