<svg xmlns="http://www.w3.org/2000/svg" width="1600" height="900" viewBox="0 0 1600 900" role="img" aria-label="Finance / Economy cover">
  <defs>
    <linearGradient id="bg" x1="0" y1="0" x2="1" y2="1"><stop offset="0" stop-color="#14532d"/><stop offset=".62" stop-color="#ca8a04"/><stop offset="1" stop-color="#0b1120"/></linearGradient>
    <pattern id="grid" width="80" height="80" patternUnits="userSpaceOnUse"><path d="M80 0H0v80" fill="none" stroke="#ffffff" stroke-opacity=".08" stroke-width="1"/></pattern>
  </defs>
  <rect width="1600" height="900" fill="url(#bg)"/>
  <rect width="1600" height="900" fill="url(#grid)"/>
  <path d="M0 715C245 620 410 765 650 672c210-82 298-245 545-190 157 35 255 120 405 62v356H0z" fill="#020617" opacity=".38"/>
  <g opacity=".16" fill="none" stroke="#fff" stroke-width="2"><path d="M120 160h520M120 210h390M120 260h465M120 700h360"/></g>
  <g fill="none" stroke="#f8fafc" stroke-width="8"><path d="M950 580V260M950 580h430"/><path d="M1010 510l95-95 90 50 145-170"/><circle cx="1010" cy="510" r="13"/><circle cx="1105" cy="415" r="13"/><circle cx="1195" cy="465" r="13"/><circle cx="1340" cy="295" r="13"/></g>
  <text x="120" y="405" font-family="Inter, Avenir Next, Helvetica, Arial, sans-serif" font-size="86" font-weight="760" letter-spacing="0" fill="#f8fafc">Finance / Economy</text>
  <text x="126" y="478" font-family="Inter, Avenir Next, Helvetica, Arial, sans-serif" font-size="32" font-weight="500" letter-spacing="0" fill="#e5e7eb">Capital · Debt · Cycle</text>
  <text x="126" y="735" font-family="Inter, Avenir Next, Helvetica, Arial, sans-serif" font-size="24" fill="#cbd5e1" opacity=".86">守株阁 · thematic cover</text>
</svg>
