<svg xmlns="http://www.w3.org/2000/svg" width="1600" height="900" viewBox="0 0 1600 900" role="img" aria-label="Architecture cover">
  <defs>
    <linearGradient id="bg" x1="0" y1="0" x2="1" y2="1"><stop offset="0" stop-color="#312e81"/><stop offset=".62" stop-color="#0f766e"/><stop offset="1" stop-color="#0b1120"/></linearGradient>
    <pattern id="grid" width="80" height="80" patternUnits="userSpaceOnUse"><path d="M80 0H0v80" fill="none" stroke="#ffffff" stroke-opacity=".08" stroke-width="1"/></pattern>
  </defs>
  <rect width="1600" height="900" fill="url(#bg)"/>
  <rect width="1600" height="900" fill="url(#grid)"/>
  <path d="M0 715C245 620 410 765 650 672c210-82 298-245 545-190 157 35 255 120 405 62v356H0z" fill="#020617" opacity=".38"/>
  <g opacity=".16" fill="none" stroke="#fff" stroke-width="2"><path d="M120 160h520M120 210h390M120 260h465M120 700h360"/></g>
  <g fill="none" stroke="#eab308" stroke-width="6"><rect x="950" y="255" width="380" height="280" rx="10"/><path d="M950 340h380M1055 255v280M1205 340v195M1055 455h275"/><circle cx="1005" cy="295" r="18"/></g>
  <text x="120" y="405" font-family="Inter, Avenir Next, Helvetica, Arial, sans-serif" font-size="86" font-weight="760" letter-spacing="0" fill="#f8fafc">Architecture</text>
  <text x="126" y="478" font-family="Inter, Avenir Next, Helvetica, Arial, sans-serif" font-size="32" font-weight="500" letter-spacing="0" fill="#e5e7eb">Boundaries · Models · Trade-offs</text>
  <text x="126" y="735" font-family="Inter, Avenir Next, Helvetica, Arial, sans-serif" font-size="24" fill="#cbd5e1" opacity=".86">守株阁 · thematic cover</text>
</svg>
