<svg xmlns="http://www.w3.org/2000/svg" width="1600" height="900" viewBox="0 0 1600 900" role="img" aria-label="Distributed Systems cover">
  <defs>
    <linearGradient id="bg" x1="0" y1="0" x2="1" y2="1"><stop offset="0" stop-color="#1e3a8a"/><stop offset=".62" stop-color="#7c3aed"/><stop offset="1" stop-color="#0b1120"/></linearGradient>
    <pattern id="grid" width="80" height="80" patternUnits="userSpaceOnUse"><path d="M80 0H0v80" fill="none" stroke="#ffffff" stroke-opacity=".08" stroke-width="1"/></pattern>
  </defs>
  <rect width="1600" height="900" fill="url(#bg)"/>
  <rect width="1600" height="900" fill="url(#grid)"/>
  <path d="M0 715C245 620 410 765 650 672c210-82 298-245 545-190 157 35 255 120 405 62v356H0z" fill="#020617" opacity=".38"/>
  <g opacity=".16" fill="none" stroke="#fff" stroke-width="2"><path d="M120 160h520M120 210h390M120 260h465M120 700h360"/></g>
  <g fill="none" stroke="#f97316" stroke-width="6"><circle cx="1030" cy="290" r="42"/><circle cx="1265" cy="320" r="42"/><circle cx="1160" cy="505" r="42"/><circle cx="960" cy="560" r="42"/><path d="M1072 295 1223 315M1244 358 1181 468M1120 516 1001 549M997 524 1022 332M1063 324 1130 472"/></g>
  <text x="120" y="405" font-family="Inter, Avenir Next, Helvetica, Arial, sans-serif" font-size="86" font-weight="760" letter-spacing="0" fill="#f8fafc">Distributed Systems</text>
  <text x="126" y="478" font-family="Inter, Avenir Next, Helvetica, Arial, sans-serif" font-size="32" font-weight="500" letter-spacing="0" fill="#e5e7eb">Consistency · Messaging · Scale</text>
  <text x="126" y="735" font-family="Inter, Avenir Next, Helvetica, Arial, sans-serif" font-size="24" fill="#cbd5e1" opacity=".86">守株阁 · thematic cover</text>
</svg>
